<?xml version="1.0" encoding="utf-8"?>
<!-- Generator: Adobe Illustrator 17.0.0, SVG Export Plug-In . SVG Version: 6.00 Build 0)  -->
<!DOCTYPE svg PUBLIC "-//W3C//DTD SVG 1.1//EN" "http://www.w3.org/Graphics/SVG/1.1/DTD/svg11.dtd" [
	<!ENTITY ns_flows "http://ns.adobe.com/Flows/1.0/">
	<!ENTITY ns_extend "http://ns.adobe.com/Extensibility/1.0/">
	<!ENTITY ns_ai "http://ns.adobe.com/AdobeIllustrator/10.0/">
	<!ENTITY ns_graphs "http://ns.adobe.com/Graphs/1.0/">
]>
<svg version="1.1" id="Layer_1" xmlns:x="&ns_extend;" xmlns:i="&ns_ai;" xmlns:graph="&ns_graphs;"
	 xmlns="http://www.w3.org/2000/svg" xmlns:xlink="http://www.w3.org/1999/xlink" xmlns:a="http://ns.adobe.com/AdobeSVGViewerExtensions/3.0/"
	 x="0px" y="0px" width="425.9px" height="416.6px" viewBox="0 0 425.9 416.6" enable-background="new 0 0 425.9 416.6"
	 xml:space="preserve">
<g>
	<path fill-rule="evenodd" clip-rule="evenodd" stroke="#FFFFFF" stroke-width="2" stroke-miterlimit="10" d="M213.6,413.5
		c112.6,0,204.5-91.8,204.5-204.5c0-112.6-91.8-204.4-204.5-204.4C101.1,4.7,9.2,96.5,9.2,209.1C9.2,321.7,101.1,413.5,213.6,413.5"
		/>
	<path fill="#FFFFFF" d="M353.9,265.9c-6.3,0-11.7-2.2-16.3-6.5c-2.3-2.2-4-4.6-5.1-7.2c-1.1-2.7-1.7-5.5-1.7-8.7
		c0-3.1,0.6-6.1,1.7-8.7c1.2-2.7,2.9-5.1,5.1-7.3l0,0c1.2-1.1,2.3-2,3.6-2.9c1.2-0.8,2.5-1.5,3.9-2c2.7-1.1,5.6-1.6,8.8-1.6h0
		c3.2,0,6.1,0.6,8.9,1.6c0.4,0.2,0.9,0.4,1.3,0.6c2.2,1.1,4.3,2.5,6.3,4.4c2.3,2.2,4,4.6,5.1,7.3c1.2,2.7,1.8,5.6,1.8,8.7
		c0,6.3-2.3,11.6-6.9,16l0,0c-0.7,0.6-1.3,1.2-2,1.7c-0.7,0.5-1.4,1-2.1,1.4C362.5,264.7,358.4,265.9,353.9,265.9 M353.9,227.8
		L353.9,227.8c-2.2,0-4.2,0.4-6.1,1.1c-0.3,0.1-0.6,0.3-0.9,0.4c-1.5,0.7-3,1.7-4.3,3c-1.6,1.5-2.8,3.2-3.5,5
		c-0.8,1.9-1.2,3.8-1.2,6c0,2.2,0.4,4.2,1.2,6c0.8,1.8,2,3.5,3.5,4.9c1.6,1.5,3.3,2.6,5.2,3.3c1.9,0.7,3.9,1.1,6.1,1.1
		c2.2,0,4.3-0.4,6.1-1.1c1.9-0.7,3.7-1.9,5.2-3.3c1.6-1.5,2.8-3.1,3.6-4.9c0.8-1.8,1.2-3.8,1.2-6v-0.2c0-1.1-0.1-2.1-0.3-3.1
		c-0.1-0.5-0.2-1-0.4-1.5c-0.7-2.4-2.1-4.5-4.1-6.3c-1.6-1.5-3.4-2.6-5.3-3.4C358.1,228.2,356.1,227.8,353.9,227.8"/>
	<path fill="#FFFFFF" d="M301.3,210h6.7h0.3v0.3v11.1h14.4h0.3v0.3v6.5v0.3h-0.3h-14.4v20.9c0,0.6,0.2,1.5,0.5,2.7
		c0.2,0.6,0.4,1.1,0.6,1.5c0.2,0.4,0.4,0.7,0.5,1v0c0.2,0.3,0.5,0.7,0.8,0.9c0.3,0.3,0.6,0.6,0.9,0.8c1.8,1.3,4.2,1.9,7.4,1.9h2.5
		h2.5h0.3v0.3v6.3v0.3H324h0c-0.1,0-0.6,0-1.3,0l-0.8,0l-2.2,0.1c-1,0-1.9,0-2.6,0c-0.8,0-1.5,0-2.1,0l0,0c-0.9-0.1-1.7-0.2-2.4-0.3
		c-0.8-0.1-1.4-0.3-2.1-0.5l0,0c-0.4-0.1-0.8-0.2-1.1-0.4s-0.8-0.3-1.1-0.5c-1.8-0.9-3.4-2.2-4.6-4c-0.8-1.2-1.5-2.5-2-3.9
		c-0.4-1.3-0.6-2.8-0.6-4.3v-41.2V210H301.3z"/>
	<path fill="#FFFFFF" d="M271.7,210h6.7h0.3v0.3v11.1H293h0.3v0.3v6.5v0.3H293h-14.4v20.9c0,0.6,0.2,1.5,0.5,2.7
		c0.2,0.6,0.4,1.1,0.6,1.5c0.2,0.4,0.3,0.7,0.5,1v0c0.3,0.3,0.5,0.7,0.8,0.9c0.3,0.3,0.6,0.6,0.9,0.8c1.8,1.3,4.2,1.9,7.4,1.9h2.5
		h2.5h0.3v0.3v6.3v0.3h-0.3h0c-0.2,0-0.6,0-1.3,0l-0.8,0l-2.2,0.1c-1,0-1.9,0-2.6,0c-0.8,0-1.5,0-2.1,0h0c-0.8-0.1-1.6-0.2-2.4-0.3
		c-0.7-0.1-1.4-0.3-2.1-0.5c-0.4-0.1-0.8-0.2-1.1-0.4c-0.4-0.1-0.7-0.3-1.1-0.5c-1.8-0.9-3.4-2.2-4.6-4c-0.9-1.2-1.5-2.5-1.9-3.9
		c-0.4-1.3-0.7-2.8-0.7-4.3v-41.2V210H271.7z"/>
	<path fill="#FFFFFF" d="M256.9,239.8c-0.2-1-0.4-2-0.7-2.9c-0.4-1-0.7-1.9-1.2-2.7c-2.4-4.2-6.7-6.3-13.1-6.3
		c-2.2,0-4.2,0.4-6.1,1.1c-1.9,0.8-3.6,1.9-5.2,3.4c-3.2,3-4.7,6.7-4.7,11l0,0.2v0c0,0.6,0.1,1.2,0.1,1.7c0.1,0.6,0.2,1.1,0.3,1.7
		c0.6,2.7,2,5.2,4.1,7.3c1.5,1.5,3.1,2.6,4.9,3.4c1.8,0.7,3.7,1.1,5.8,1.1c3.6,0,7-0.7,10.2-2l0,0c1.9-0.8,3.4-1.8,4.6-2.9
		c0.3-0.3,0.6-0.5,0.8-0.8l5.1,4.5c-0.6,0.7-1.3,1.5-2,2.2c-1.5,1.4-3.3,2.5-5.3,3.5l0,0h0c-0.5,0.2-1.1,0.5-1.6,0.7
		c-0.5,0.2-1.1,0.4-1.6,0.6c-2.9,0.9-5.9,1.4-9.2,1.4c-3.2,0-6.1-0.6-8.9-1.6c-2.7-1.1-5.2-2.7-7.5-4.8c-0.6-0.6-1.2-1.2-1.8-1.9
		c-0.6-0.6-1.1-1.3-1.5-2c-2.4-3.5-3.6-7.5-3.6-12.1c0-3.1,0.6-6,1.8-8.7c1.1-2.7,2.8-5.1,5.1-7.3l0,0c0.7-0.6,1.3-1.2,2-1.7
		c0.7-0.5,1.4-1,2.1-1.5c3.6-2.3,7.7-3.4,12.3-3.4l0,0h0.3l0,0c0.9,0,1.9,0.1,2.7,0.1c0.9,0.1,1.8,0.2,2.6,0.3
		c4.2,0.7,7.7,2.1,10.4,4.3c2.3,1.9,4.1,4.2,5.2,7.1c1.1,2.9,1.7,6.2,1.7,10v0.1c0,0.4,0,0.9,0,1.4v0.2c0,0.4,0,0.8-0.1,1.2v0.3
		h-0.3h-32.4h-0.3v-0.3l5.2-5.5v-0.3h0.3H256.9z"/>
	<path fill="#FFFFFF" d="M196,265.2h-6.7H189V265v-41.3c0-2.1,0.5-4.1,1.4-6c0.2-0.4,0.4-0.7,0.6-1.1c0.2-0.3,0.4-0.7,0.7-1v0
		c0.9-1.2,1.9-2.2,3-3c1.2-0.8,2.4-1.4,3.8-1.9c0.6-0.2,1.3-0.3,2-0.5c0.7-0.1,1.5-0.2,2.4-0.3c0.9,0,1.9-0.1,3.1-0.1
		c0.3,0,0.5,0,0.8,0c0.3,0,0.5,0,0.7,0h0.2c2.6,0.1,4.1,0.1,4.3,0.1h0.3v0.3v6.2v0.3h-0.3h-2.5H207c-2.2,0-4,0.3-5.5,0.9
		c-1.5,0.6-2.7,1.5-3.6,2.7c-0.2,0.4-0.5,0.9-0.8,1.6c-0.1,0.1-0.1,0.3-0.1,0.5c-0.1,0.2-0.1,0.3-0.2,0.5v0l0,0
		c-0.1,0.5-0.3,1-0.4,1.4l-0.1,0.2c-0.1,0.5-0.1,0.8-0.1,1.1l0,0v2.3h14.5h0.3v0.3v6.5v0.3h-0.3h-14.5v30v0.3H196z"/>
	<path fill="#FFFFFF" d="M167.5,227.8c-1.7,0-3.2,0.3-4.7,0.9c-1.4,0.6-2.6,1.5-3.8,2.7c-1.1,1.2-1.9,2.6-2.5,4
		c-0.6,1.5-0.9,3.1-0.9,4.9V265v0.3h-0.3h-7h-0.3V265v-43.2v-0.3h0.3h7h0.3v0.3v3.9l0.5-0.4c0.3-0.3,0.6-0.5,0.9-0.7
		c1.5-1.1,2.9-1.9,4.1-2.4l0,0c0.3-0.1,0.6-0.2,0.9-0.4c0.3-0.1,0.6-0.2,0.9-0.3c1.6-0.5,3.3-0.7,5.1-0.7h0c2.9,0,5.5,0.6,7.9,1.7
		c0.4,0.2,0.8,0.4,1.1,0.6c1.9,1.1,3.7,2.7,5.2,4.7l0.2,0.3l-0.3,0.2l-5.9,3.3l-0.2,0.1l-0.1-0.2v0c-0.6-0.6-1.2-1.2-1.8-1.6
		c-0.7-0.5-1.3-0.9-2-1.2C170.8,228.2,169.2,227.8,167.5,227.8"/>
	<path fill="#FFFFFF" d="M89.2,243.5L89.2,243.5L89.2,243.5c0,1.7-0.2,3.4-0.6,5.1c-0.4,1.6-1,3.3-1.9,4.8c-1.8,3.7-4.5,6.6-8,8.7
		c-3.5,2-7.3,3.1-11.5,3.1h-10v33.3v0.3H57h-6.6h-0.3v-0.3v-76.8v-0.3h0.3h16.5c3.1,0,5.9,0.5,8.5,1.6c2.6,1.1,5,2.6,7.2,4.7
		c1.8,1.8,3.3,3.7,4.3,5.8c0.2,0.4,0.4,0.8,0.6,1.2C88.7,237.5,89.2,240.4,89.2,243.5 M66.6,229h-9.3v29.4h9.1c3,0,5.8-0.7,8.2-2.2
		c0.5-0.3,0.9-0.6,1.3-0.9c0.4-0.3,0.9-0.7,1.3-1.1h0c2.9-2.8,4.4-6.4,4.4-10.6c0-2.1-0.4-4.1-1.1-5.8c-0.7-1.7-1.8-3.3-3.2-4.6
		C74.4,230.3,70.8,229,66.6,229"/>
	<path fill="#FFFFFF" d="M133.8,239.8c-0.2-1-0.4-2-0.7-2.9c-0.3-1-0.7-1.9-1.2-2.7c-2.4-4.2-6.8-6.3-13.1-6.3
		c-2.2,0-4.3,0.4-6.1,1.1c-1.9,0.8-3.6,1.9-5.2,3.4c-3.2,3-4.7,6.7-4.7,11v0.2v0c0,0.6,0,1.2,0.1,1.7c0.1,0.6,0.2,1.1,0.3,1.7
		c0.6,2.7,2,5.2,4.1,7.3c1.5,1.5,3.1,2.6,4.9,3.4c1.8,0.7,3.7,1.1,5.8,1.1c3.6,0,7-0.7,10.2-2l0,0c1.9-0.8,3.4-1.8,4.6-2.9
		c0.3-0.3,0.6-0.5,0.8-0.8l5.1,4.5c-0.6,0.7-1.3,1.5-2,2.2c-1.5,1.4-3.3,2.5-5.3,3.5l0,0l0,0c-0.5,0.2-1,0.5-1.6,0.7
		c-0.6,0.2-1.1,0.4-1.6,0.6c-2.9,0.9-5.9,1.4-9.2,1.4c-3.2,0-6.1-0.6-8.9-1.6c-2.7-1.1-5.2-2.7-7.5-4.8l0,0l0,0
		c-0.7-0.6-1.2-1.2-1.8-1.9c-0.6-0.6-1.1-1.3-1.5-2c-2.3-3.5-3.5-7.5-3.5-12.1c0-3.1,0.6-6,1.7-8.7c1.2-2.7,2.8-5.1,5.1-7.3
		c0.7-0.6,1.3-1.2,2-1.7c0.7-0.5,1.4-1,2.1-1.5c3.6-2.3,7.7-3.4,12.3-3.4h0.3h0c0.9,0,1.8,0.1,2.7,0.1c0.9,0.1,1.7,0.2,2.6,0.3
		c4.2,0.7,7.7,2.1,10.5,4.3c2.3,1.9,4.1,4.2,5.2,7.1c1.2,2.9,1.7,6.2,1.7,10v0.1h0c0,0.4,0,0.9,0,1.4l0,0.2c0,0.4,0,0.8-0.1,1.2
		l0,0.3h-0.3H109h-0.3v-0.3l5.2-5.5v-0.3h0.3H133.8z"/>
	<g>
		<path fill-rule="evenodd" clip-rule="evenodd" fill="#FFFFFF" d="M210.3,186.9c-86-38.9,17.9-64.4-27.6-107.4
			C257.6,131.5,156.6,149,210.3,186.9"/>
		<path fill-rule="evenodd" clip-rule="evenodd" fill="#FFFFFF" d="M245.3,47.2C166.6,83.4,268.8,103,219,150
			C302.8,101.1,196.7,81.6,245.3,47.2"/>
	</g>
</g>
</svg>
