<?xml version="1.0" encoding="utf-8"?>
<!-- Generator: Adobe Illustrator 17.0.0, SVG Export Plug-In . SVG Version: 6.00 Build 0)  -->
<!DOCTYPE svg PUBLIC "-//W3C//DTD SVG 1.1//EN" "http://www.w3.org/Graphics/SVG/1.1/DTD/svg11.dtd" [
	<!ENTITY ns_flows "http://ns.adobe.com/Flows/1.0/">
	<!ENTITY ns_extend "http://ns.adobe.com/Extensibility/1.0/">
	<!ENTITY ns_ai "http://ns.adobe.com/AdobeIllustrator/10.0/">
	<!ENTITY ns_graphs "http://ns.adobe.com/Graphs/1.0/">
]>
<svg version="1.1" id="Layer_1" xmlns:x="&ns_extend;" xmlns:i="&ns_ai;" xmlns:graph="&ns_graphs;"
	 xmlns="http://www.w3.org/2000/svg" xmlns:xlink="http://www.w3.org/1999/xlink" xmlns:a="http://ns.adobe.com/AdobeSVGViewerExtensions/3.0/"
	 x="0px" y="0px" width="427px" height="287.7px" viewBox="0 0 427 287.7" enable-background="new 0 0 427 287.7"
	 xml:space="preserve">
<g>
	<path fill="#FFFFFF" d="M76.1,0l22.4,64.5h0.2L121.1,0h4.8L98.4,78L71.3,0H76.1z"/>
	<path fill="#FFFFFF" d="M138.6,29.3v7.2h0.2c1.4-2.6,3.2-4.6,5.6-6c2.4-1.5,5.1-2.2,8.1-2.2c3.9,0,6.9,0.8,9.1,2.3
		c2.2,1.5,3.8,3.7,4.7,6.5s1.4,6.3,1.4,10.5v28h-4.5v-28c0-3.2-0.2-5.9-0.7-8c-0.5-2.1-1.5-3.9-3.2-5.1c-1.6-1.3-4-1.9-7.2-1.9
		c-3.6,0-6.4,1-8.4,2.9c-2,1.9-3.4,4.4-4.1,7.4c-0.7,3-1.1,6.3-1.1,9.9v22.8h-4.5V29.3H138.6z"/>
	<path fill="#FFFFFF" d="M223.3,52.8h-40.2c0,3.9,0.8,7.4,2.4,10.3c1.6,3,3.8,5.2,6.7,6.8c2.8,1.6,6,2.4,9.5,2.4
		c3.5,0,6.7-1,9.5-2.9c2.8-1.9,5.1-4.5,6.8-7.6l3.8,2.2c-2.1,4-4.9,7.1-8.5,9.3c-3.6,2.2-7.6,3.3-12.2,3.3c-4.4,0-8.4-1.1-11.8-3.3
		c-3.4-2.2-6-5.1-7.9-8.8c-1.9-3.7-2.8-7.7-2.8-12.1c0-4.3,0.9-8.3,2.8-12c1.9-3.7,4.5-6.6,7.9-8.8s7.3-3.3,11.7-3.3
		c4.5,0,8.5,1.1,11.8,3.3c3.4,2.2,5.9,5.2,7.7,8.9C222.4,44.2,223.3,48.3,223.3,52.8z M183.1,48.6h35.7c-0.4-2.8-1.3-5.5-3-8
		c-1.6-2.5-3.7-4.5-6.2-5.9c-2.6-1.5-5.4-2.2-8.4-2.2c-3.1,0-5.9,0.7-8.6,2.2c-2.7,1.5-4.8,3.4-6.5,5.9
		C184.4,43,183.4,45.7,183.1,48.6z"/>
	<path fill="#FFFFFF" d="M257.6,35.7l-3.9,2c-0.7-1.6-1.8-2.9-3.3-3.8c-1.4-0.9-3.1-1.4-4.9-1.4c-2,0-3.8,0.7-5.5,2.1
		c-1.6,1.4-2.4,3.1-2.4,5.1c0,2.4,0.8,4.1,2.4,5.1c1.6,1,4.4,2.2,8.3,3.7c3.9,1.5,6.9,3.2,8.9,5.1c2,1.9,3,4.7,3,8.5
		c0,2.7-0.7,5.2-2,7.4c-1.3,2.2-3.1,3.9-5.4,5.2c-2.3,1.2-4.8,1.8-7.5,1.8c-3.9,0-7.3-1.1-10.2-3.3c-2.9-2.2-4.8-5.2-5.7-8.9
		l4.4-1.4c2,6.3,5.8,9.4,11.5,9.4c2.9,0,5.4-1,7.4-3c2-2,3-4.5,3-7.4c0-2.6-0.8-4.5-2.3-5.7c-1.5-1.2-3.8-2.4-6.7-3.4
		c-2.8-1-5.1-2-6.9-2.9c-1.9-1-3.4-2.3-4.7-3.9c-1.3-1.6-1.9-3.6-1.9-6c0-3.4,1.2-6.2,3.7-8.4c2.5-2.2,5.4-3.3,8.9-3.3
		c1.5,0,3.1,0.3,4.7,1c1.6,0.6,3,1.5,4.3,2.7C256,33,256.9,34.3,257.6,35.7z"/>
	<path fill="#FFFFFF" d="M312,52.8h-40.2c0,3.9,0.8,7.4,2.4,10.3c1.6,3,3.8,5.2,6.7,6.8s6,2.4,9.5,2.4c3.5,0,6.7-1,9.5-2.9
		c2.8-1.9,5.1-4.5,6.8-7.6l3.8,2.2c-2.1,4-4.9,7.1-8.5,9.3c-3.6,2.2-7.6,3.3-12.2,3.3c-4.4,0-8.4-1.1-11.8-3.3
		c-3.4-2.2-6-5.1-7.9-8.8c-1.9-3.7-2.8-7.7-2.8-12.1c0-4.3,0.9-8.3,2.8-12c1.9-3.7,4.5-6.6,7.9-8.8c3.4-2.2,7.3-3.3,11.7-3.3
		c4.5,0,8.5,1.1,11.8,3.3c3.4,2.2,5.9,5.2,7.7,8.9C311.1,44.2,312,48.3,312,52.8z M271.8,48.6h35.7c-0.4-2.8-1.3-5.5-3-8
		c-1.6-2.5-3.7-4.5-6.2-5.9c-2.6-1.5-5.4-2.2-8.4-2.2s-5.9,0.7-8.6,2.2c-2.7,1.5-4.8,3.4-6.5,5.9C273,43,272.1,45.7,271.8,48.6z"/>
</g>
<g>
	<path fill="#FFFFFF" d="M37.7,107H11.4v18.1h25.4v10.7H11.4v36H0V96.3h37.7V107z"/>
	<path fill="#FFFFFF" d="M47.8,124.1h11v4.3c2-2.1,3.8-3.6,5.4-4.4c1.6-0.8,3.5-1.2,5.7-1.2c2.9,0,5.9,0.9,9.1,2.8l-5,10.1
		c-2.1-1.5-4.1-2.2-6.1-2.2c-6,0-9,4.5-9,13.6v24.7h-11V124.1z"/>
	<path fill="#FFFFFF" d="M128,150.5H93.9c0.3,3.9,1.6,7,3.8,9.3c2.2,2.3,5.1,3.4,8.7,3.4c2.7,0,5-0.7,6.8-2c1.8-1.3,3.8-3.7,6-7.2
		l9.3,5.2c-1.4,2.4-3,4.5-4.5,6.3c-1.6,1.7-3.3,3.2-5.1,4.3c-1.8,1.1-3.8,1.9-5.9,2.5c-2.1,0.5-4.4,0.8-6.9,0.8
		c-7.1,0-12.8-2.3-17.1-6.8c-4.3-4.6-6.5-10.7-6.5-18.3c0-7.5,2.1-13.6,6.3-18.3c4.2-4.6,9.8-6.9,16.7-6.9c7,0,12.6,2.2,16.6,6.7
		c4,4.4,6.1,10.6,6.1,18.4L128,150.5z M116.7,141.5c-1.5-5.9-5.2-8.8-11.1-8.8c-1.3,0-2.6,0.2-3.8,0.6c-1.2,0.4-2.2,1-3.2,1.8
		s-1.8,1.7-2.5,2.8c-0.7,1.1-1.2,2.3-1.6,3.7H116.7z"/>
	<path fill="#FFFFFF" d="M183.4,150.5h-34.1c0.3,3.9,1.6,7,3.8,9.3c2.2,2.3,5.1,3.4,8.7,3.4c2.7,0,5-0.7,6.8-2
		c1.8-1.3,3.8-3.7,6-7.2l9.3,5.2c-1.4,2.4-3,4.5-4.5,6.3c-1.6,1.7-3.3,3.2-5.1,4.3c-1.8,1.1-3.8,1.9-5.9,2.5
		c-2.1,0.5-4.4,0.8-6.9,0.8c-7.1,0-12.8-2.3-17.1-6.8c-4.3-4.6-6.5-10.7-6.5-18.3c0-7.5,2.1-13.6,6.3-18.3c4.2-4.6,9.8-6.9,16.7-6.9
		c7,0,12.6,2.2,16.6,6.7c4,4.4,6.1,10.6,6.1,18.4L183.4,150.5z M172.1,141.5c-1.5-5.9-5.2-8.8-11.1-8.8c-1.3,0-2.6,0.2-3.8,0.6
		c-1.2,0.4-2.2,1-3.2,1.8s-1.8,1.7-2.5,2.8s-1.2,2.3-1.6,3.7H172.1z"/>
	<path fill="#FFFFFF" d="M206.5,89.2v82.6h-11V89.2H206.5z"/>
	<path fill="#FFFFFF" d="M255.5,124.1h11.1v47.6h-11.1v-5c-4.5,4.2-9.4,6.4-14.6,6.4c-6.6,0-12-2.4-16.3-7.1
		c-4.3-4.9-6.4-10.9-6.4-18.2c0-7.1,2.1-13.1,6.4-17.9c4.3-4.8,9.6-7.1,16-7.1c5.5,0,10.5,2.3,14.9,6.8V124.1z M229.4,147.8
		c0,4.6,1.2,8.3,3.7,11.2c2.5,2.9,5.7,4.4,9.5,4.4c4.1,0,7.4-1.4,9.9-4.2c2.5-2.9,3.8-6.6,3.8-11.1s-1.3-8.2-3.8-11.1
		c-2.5-2.8-5.8-4.3-9.8-4.3c-3.8,0-6.9,1.4-9.5,4.3C230.6,140,229.4,143.5,229.4,147.8z"/>
	<path fill="#FFFFFF" d="M280.5,124.1h11.1v4.4c3.8-3.8,8.2-5.7,13-5.7c5.5,0,9.9,1.7,13,5.2c2.7,3,4,7.8,4,14.5v29.2h-11.1v-26.6
		c0-4.7-0.7-7.9-2-9.7c-1.3-1.8-3.6-2.7-6.9-2.7c-3.7,0-6.2,1.2-7.8,3.6c-1.5,2.4-2.3,6.5-2.3,12.5v23h-11.1V124.1z"/>
	<path fill="#FFFFFF" d="M372.5,126.2v14.6c-2.5-3.1-4.8-5.2-6.7-6.3c-2-1.2-4.3-1.8-6.9-1.8c-4.1,0-7.6,1.5-10.3,4.4
		c-2.7,2.9-4.1,6.5-4.1,10.9c0,4.5,1.3,8.1,4,11c2.7,2.9,6.1,4.3,10.2,4.3c2.6,0,5-0.6,7-1.7c2-1.1,4.3-3.3,6.9-6.5v14.5
		c-4.5,2.3-8.9,3.5-13.4,3.5c-7.4,0-13.5-2.4-18.5-7.1c-5-4.8-7.4-10.7-7.4-17.9c0-7.1,2.5-13.1,7.5-18c5-4.9,11.2-7.3,18.5-7.3
		C363.9,122.8,368.3,123.9,372.5,126.2z"/>
	<path fill="#FFFFFF" d="M426.5,150.5h-34.1c0.3,3.9,1.6,7,3.8,9.3c2.2,2.3,5.1,3.4,8.7,3.4c2.7,0,5-0.7,6.8-2
		c1.8-1.3,3.8-3.7,6-7.2l9.3,5.2c-1.4,2.4-3,4.5-4.5,6.3c-1.6,1.7-3.3,3.2-5.1,4.3c-1.8,1.1-3.8,1.9-5.9,2.5
		c-2.1,0.5-4.4,0.8-6.9,0.8c-7.1,0-12.8-2.3-17.1-6.8c-4.3-4.6-6.5-10.7-6.5-18.3c0-7.5,2.1-13.6,6.3-18.3c4.2-4.6,9.8-6.9,16.7-6.9
		c7,0,12.6,2.2,16.6,6.7c4,4.4,6.1,10.6,6.1,18.4L426.5,150.5z M415.2,141.5c-1.5-5.9-5.2-8.8-11.1-8.8c-1.3,0-2.6,0.2-3.8,0.6
		c-1.2,0.4-2.2,1-3.2,1.8s-1.8,1.7-2.5,2.8s-1.2,2.3-1.6,3.7H415.2z"/>
</g>
<g>
	<path fill="#FFFFFF" d="M208.7,224.2h31.9c0,3.4-0.2,6.6-0.6,9.5c-0.4,2.9-1.2,5.6-2.4,8.3c-1.2,2.6-2.8,5.1-4.9,7.4
		c-3.5,3.8-7.9,6.8-12.9,9c-5.1,2.2-10.3,3.2-15.7,3.2c-5.1,0-10.1-1-14.8-3s-8.9-4.8-12.5-8.4c-3.6-3.6-6.4-7.7-8.5-12.4
		c-2-4.7-3.1-9.5-3.1-14.6c0-7.1,1.8-13.6,5.3-19.6c3.5-6,8.3-10.7,14.4-14.2c6-3.5,12.6-5.2,19.7-5.2c4.5,0,8.7,0.7,12.7,2.1
		c4,1.4,7.7,3.4,11,6.1c3.3,2.6,6.4,5.8,9,9.4l-3.9,3.1c-1.6-2.5-3.5-4.7-5.6-6.8c-2.2-2-4.4-3.8-6.9-5.2c-2.4-1.4-5.1-2.5-7.9-3.2
		c-2.8-0.7-5.7-1.1-8.8-1.1c-6,0-11.6,1.6-16.9,4.8c-5.3,3.2-9.5,7.4-12.6,12.7c-3.1,5.3-4.7,10.9-4.7,16.8c0,6.1,1.5,11.7,4.6,17
		c3.1,5.3,7.3,9.5,12.5,12.6c5.3,3.1,11,4.7,17.1,4.7c7.9,0,15.3-2.8,22.2-8.3c2.1-1.8,3.8-3.7,5.2-5.8c1.3-2,2.3-4.2,3-6.6
		c0.6-2.3,1-4.9,1.1-7.7h-27V224.2z"/>
	<path fill="#FFFFFF" d="M256.3,214.3v6h0.2c2-4.7,5.3-7,10-7c1.6,0,3.2,0.4,4.9,1.1l-2.4,4c-1.1-0.6-2.2-0.9-3.2-0.9
		c-2.8,0-4.9,0.9-6.3,2.6c-1.4,1.7-2.3,3.8-2.7,6.2c-0.4,2.4-0.6,5.2-0.6,8.3v2.3v23.6h-4.5v-46.3H256.3z"/>
	<path fill="#FFFFFF" d="M299.2,213.3c3.4,0,6.6,0.6,9.5,1.8c3,1.2,5.6,2.9,7.8,5.1c2.2,2.2,3.9,4.7,5.2,7.7c1.2,3,1.9,6.1,1.9,9.5
		c0,4.5-1.1,8.6-3.2,12.3c-2.2,3.7-5.1,6.6-8.8,8.7c-3.7,2.1-7.8,3.2-12.3,3.2c-4.4,0-8.4-1.1-12.1-3.3c-3.7-2.2-6.6-5.1-8.8-8.8
		c-2.2-3.7-3.2-7.7-3.2-12c0-4.4,1.1-8.4,3.2-12.1c2.1-3.7,5-6.7,8.7-8.8S294.8,213.3,299.2,213.3z M298.9,217.5
		c-3.6,0-6.8,0.9-9.8,2.7c-3,1.8-5.3,4.3-6.9,7.4c-1.7,3.1-2.5,6.4-2.5,9.9c0,3.5,0.8,6.8,2.5,9.8c1.7,3,4,5.5,7,7.3
		c3,1.8,6.2,2.7,9.7,2.7c3.7,0,7.1-0.9,10.2-2.6c3.1-1.7,5.5-4.1,7.3-7.2c1.8-3,2.7-6.4,2.7-10c0-3.8-0.9-7.2-2.7-10.2
		s-4.2-5.5-7.3-7.2C306.1,218.4,302.7,217.5,298.9,217.5z"/>
	<path fill="#FFFFFF" d="M362.5,214.3h4.5v27.7c0,3.1-0.2,5.7-0.5,7.8c-0.3,2-1.1,3.9-2.3,5.6c-1.5,2-3.5,3.6-6,4.6
		c-2.5,1.1-5.1,1.6-7.8,1.6c-2.7,0-5.3-0.5-7.8-1.6c-2.5-1.1-4.5-2.6-6.1-4.6c-0.8-1.2-1.5-2.5-1.9-3.9c-0.4-1.4-0.7-2.8-0.8-4.2
		c-0.1-1.4-0.1-3.1-0.1-5.2v-27.7h4.5v26.1c0,2.5,0.1,4.8,0.4,6.7c0.3,1.9,0.8,3.7,1.6,5.2c0.8,1.6,2,2.8,3.7,3.7
		c1.7,0.9,3.8,1.3,6.4,1.3c5,0,8.3-1.4,9.8-4.4c1.5-2.9,2.3-7.1,2.3-12.6V214.3z"/>
	<path fill="#FFFFFF" d="M386.3,214.3v8.3h0.2c1.7-2.9,4.1-5.1,7.4-6.8c3.3-1.7,6.7-2.5,10.2-2.5c3.5,0,6.6,0.6,9.4,1.9
		s5.2,3,7.3,5.3c2,2.3,3.5,4.9,4.6,7.8c1,3,1.6,6.1,1.6,9.5c0,4.5-0.9,8.6-2.8,12.2c-1.9,3.6-4.5,6.4-7.9,8.5
		c-3.4,2.1-7.4,3.1-11.9,3.1c-3.7,0-7.1-0.8-10.3-2.4c-3.2-1.6-5.7-3.8-7.6-6.7h-0.2v35.1h-4.5v-73.3H386.3z M404.2,217.5
		c-3.8,0-7.1,0.9-9.8,2.8c-2.8,1.9-4.9,4.4-6.3,7.7c-1.4,3.2-2.1,6.7-2.1,10.4c0,3.6,0.8,6.8,2.3,9.7c1.5,2.9,3.7,5.1,6.5,6.8
		c2.8,1.6,6,2.5,9.6,2.5c3.5,0,6.6-0.9,9.4-2.7c2.8-1.8,4.9-4.2,6.4-7.2c1.5-3,2.3-6.2,2.3-9.6c0-3.6-0.7-6.9-2.2-10.1
		c-1.5-3.1-3.6-5.6-6.4-7.5C411,218.5,407.8,217.5,404.2,217.5z"/>
</g>
</svg>
